HIERARCHY
ROOT Hips
{
	OFFSET 0.00 0.00 0.00
	CHANNELS 6 Xposition Yposition Zposition Xrotation Yrotation Zrotation
	JOINT Spine
	{
		OFFSET 0.00000 7.06766 0.00000
		CHANNELS 3 Xrotation Yrotation Zrotation
		JOINT Head
		{
			OFFSET 0.00000 15.03989 0.00000
			CHANNELS 3 Xrotation Yrotation Zrotation
			End Site
			{
				OFFSET 0.00000 4.52755 0.00000
			}
		}
		JOINT LeftShoulder
		{
			OFFSET 0.00000 10.53037 0.00000
			CHANNELS 3 Xrotation Yrotation Zrotation
			JOINT LeftArm
			{
				OFFSET 7.02886 0.00000 0.00000
				CHANNELS 3 Xrotation Yrotation Zrotation
				JOINT LeftForeArm
				{
					OFFSET 10.79770 0.00000 0.00000
					CHANNELS 3 Yrotation Zrotation Xrotation
					JOINT LeftHand
					{
						OFFSET 7.90744 0.00000 0.00000
						CHANNELS 3 Xrotation Yrotation Zrotation
						JOINT LeftHandThumb1
						{
							OFFSET 0.00000 0.00000 0.00000
							CHANNELS 3 Xrotation Zrotation Yrotation
							End Site
							{
								OFFSET 0.00000 0.00000 3.93700
							}
						}
						End Site
						{
							OFFSET 3.93700 0.00000 0.00000
						}
					}
				}
			}
		}
		JOINT RightShoulder
		{
			OFFSET 0.00000 10.53037 0.00000
			CHANNELS 3 Xrotation Yrotation Zrotation
			JOINT RightArm
			{
				OFFSET -7.02886 0.00000 0.00000
				CHANNELS 3 Xrotation Yrotation Zrotation
				JOINT RightForeArm
				{
					OFFSET -10.79770 0.00000 0.00000
					CHANNELS 3 Yrotation Zrotation Xrotation
					JOINT RightHand
					{
						OFFSET -7.90744 0.00000 0.00000
						CHANNELS 3 Xrotation Yrotation Zrotation
						JOINT RightHandThumb1
						{
							OFFSET 0.00000 0.00000 0.00000
							CHANNELS 3 Xrotation Zrotation Yrotation
							End Site
							{
								OFFSET 0.00000 0.00000 3.93700
							}
						}
						End Site
						{
							OFFSET -3.93700 0.00000 0.00000
						}
					}
				}
			}
		}
	}
	JOINT LeftUpLeg
	{
		OFFSET 4.01300 0.00000 0.00000
		CHANNELS 3 Xrotation Yrotation Zrotation
		JOINT LeftLeg
		{
			OFFSET 0.00000 -16.89976 0.00000
			CHANNELS 3 Xrotation Yrotation Zrotation
			JOINT LeftFoot
			{
				OFFSET 0.00000 -17.38918 0.00000
				CHANNELS 3 Xrotation Yrotation Zrotation
				JOINT LeftToeBase
				{
					OFFSET 0.00000 -1.27456 4.75673
					CHANNELS 3 Xrotation Yrotation Zrotation
					End Site
					{
						OFFSET 0.00000 0.00000 2.95275
					}
				}
			}
		}
	}
	JOINT RightUpLeg
	{
		OFFSET -4.01300 0.00000 0.00000
		CHANNELS 3 Xrotation Yrotation Zrotation
		JOINT RightLeg
		{
			OFFSET 0.00000 -16.89976 0.00000
			CHANNELS 3 Xrotation Yrotation Zrotation
			JOINT RightFoot
			{
				OFFSET 0.00000 -17.38918 0.00000
				CHANNELS 3 Xrotation Yrotation Zrotation
				JOINT RightToeBase
				{
					OFFSET 0.00000 -1.27456 4.75673
					CHANNELS 3 Xrotation Yrotation Zrotation
					End Site
					{
						OFFSET 0.00000 0.00000 2.95275
					}
				}
			}
		}
	}
}
MOTION
Frames: 9
Frame Time: 0.008333
 19.1679 35.6129 -20.9273 168.2626 -1.0445 178.4895 -23.7749 -1.4006 -3.3685 21.2047 0.5907 1.6682 -59.6141 -35.1065 25.0487 -40.3400 -44.1967 -16.7790 -58.3204 0.0000 -60.9014 -1.3369 -3.0407 -23.7475 33.1476 -0.0000 26.2537 -32.5513 8.5318 -42.1246 -106.1078 31.0582 22.5835 99.7695 0.0000 -41.5113 0.5664 10.2436 -3.1820 32.8623 0.0000 -24.3270 -3.8813 11.5814 2.4123 -7.2791 -0.0000 -0.0000 -15.8293 30.2562 1.6858 26.4296 0.0000 -0.0000 -4.7009 -9.9681 -1.2306 -3.2077 -0.0000 0.0000 -14.8115 -27.4848 5.4860 24.3759 -0.0000 0.0000
 19.1755 35.6131 -20.9409 168.2906 -0.9590 178.4526 -23.9000 -1.4715 -3.4400 21.4744 0.6564 1.7441 -59.7746 -35.4838 25.0639 -40.6442 -44.3459 -17.2037 -59.3218 0.0000 -61.6119 -1.3724 -3.0908 -23.9570 33.1476 -0.0000 26.2537 -32.7387 8.6518 -42.1144 -106.3526 31.1011 22.7754 100.8450 0.0000 -41.8047 0.5769 10.1808 -3.2607 32.8623 0.0000 -24.3270 -3.8233 11.5968 2.4703 -7.2958 -0.0000 0.0000 -15.8799 30.3190 1.7355 26.4472 -0.0000 0.0000 -4.6633 -9.9215 -1.1772 -3.1843 -0.0000 -0.0000 -14.7827 -27.4517 5.6003 24.3135 0.0000 0.0000
 19.1842 35.6145 -20.9522 168.3009 -0.9062 178.4190 -24.0524 -1.5274 -3.5368 21.7263 0.7277 1.8598 -60.0631 -35.9206 24.9712 -40.7955 -44.4790 -17.5906 -60.3461 0.0000 -62.3171 -1.3281 -2.9492 -24.2567 33.1476 -0.0000 26.2537 -32.8423 8.6851 -42.0854 -106.6539 31.2046 23.0199 101.8910 0.0000 -42.0971 0.6358 10.0818 -3.6274 32.8623 0.0000 -24.3270 -3.8038 11.6012 2.5238 -7.2839 0.0000 0.0000 -15.9032 30.3600 1.7474 26.3962 -0.0000 0.0000 -4.6452 -9.8573 -1.1274 -3.1576 -0.0000 -0.0000 -14.7623 -27.4763 5.6928 24.3100 0.0000 -0.0000
 19.1913 35.6153 -20.9623 168.3108 -0.8685 178.4014 -24.1882 -1.5887 -3.6411 21.9619 0.7414 1.9577 -60.3104 -36.2930 24.8784 -40.9909 -44.6456 -17.9349 -61.3120 0.0000 -62.9428 -1.3956 -3.0509 -24.5953 33.1476 -0.0000 26.2537 -33.0180 8.8344 -42.0861 -106.7521 31.2868 23.2025 102.9150 0.0000 -42.4006 0.6839 9.8370 -3.9966 32.8623 0.0000 -24.3270 -3.7898 11.6215 2.5560 -7.2686 0.0000 0.0000 -15.9409 30.3827 1.7802 26.4150 0.0000 -0.0000 -4.6279 -9.8089 -1.1006 -3.1371 0.0000 0.0000 -14.7595 -27.4794 5.7558 24.3189 -0.0000 0.0000
 19.1973 35.6168 -20.9712 168.3224 -0.8597 178.3802 -24.3318 -1.7161 -3.7355 22.2099 0.7509 1.9805 -60.4541 -36.5350 24.8325 -41.2907 -44.8601 -18.2875 -62.2264 0.0000 -63.7383 -1.3849 -2.9726 -24.9939 33.1476 -0.0000 26.2537 -33.0122 8.8235 -42.0508 -107.0603 31.4521 23.4502 103.8547 0.0000 -42.7176 0.7498 9.8595 -4.3703 32.8623 0.0000 -24.3270 -3.7817 11.6056 2.5885 -7.2471 0.0000 0.0000 -15.9639 30.4248 1.7862 26.4143 -0.0000 0.0000 -4.6084 -9.7604 -1.0743 -3.1120 -0.0000 -0.0000 -14.7479 -27.5208 5.8252 24.2942 0.0000 0.0000
 19.2045 35.6183 -20.9800 168.3365 -0.8622 178.3617 -24.4687 -1.7803 -3.8490 22.4277 0.6999 2.0308 -60.6319 -36.8145 24.7383 -41.5910 -45.0585 -18.6555 -63.1173 0.0000 -64.4453 -1.4463 -3.0527 -25.3659 33.1476 -0.0000 26.2537 -33.1202 8.9400 -42.0387 -107.0930 31.5993 23.6219 104.7626 0.0000 -43.0296 0.7704 9.7695 -4.5310 32.8623 0.0000 -24.3270 -3.7791 11.5808 2.6215 -7.2101 0.0000 -0.0000 -15.9802 30.4698 1.7804 26.3558 -0.0000 0.0000 -4.5942 -9.7309 -1.0497 -3.0719 0.0000 0.0000 -14.8157 -27.5205 5.7908 24.4998 -0.0000 -0.0000
 19.2118 35.6193 -20.9870 168.3412 -0.8710 178.3339 -24.6024 -1.8370 -3.9435 22.6358 0.7201 2.0982 -60.7646 -37.0663 24.6718 -41.8844 -45.1928 -18.9574 -64.0651 0.0000 -65.2049 -1.4639 -3.0475 -25.6727 33.1476 -0.0000 26.2537 -33.1686 9.0106 -42.0532 -107.1423 31.7607 23.7821 105.6449 0.0000 -43.2217 0.8070 9.5917 -4.8319 32.8623 0.0000 -24.3270 -3.7897 11.5724 2.6623 -7.1787 -0.0000 0.0000 -16.0091 30.4717 1.7866 26.3866 -0.0000 -0.0000 -4.5772 -9.6255 -1.0169 -3.0460 -0.0000 -0.0000 -14.7775 -27.6445 5.9024 24.2824 0.0000 -0.0000
 19.2208 35.6202 -20.9942 168.3544 -0.9115 178.3090 -24.7100 -1.9117 -4.0489 22.7944 0.7351 2.1628 -60.9642 -37.2660 24.5902 -42.1935 -45.3396 -19.3203 -64.9757 0.0000 -65.8760 -1.4933 -3.0761 -25.9110 33.1476 -0.0000 26.2537 -33.1594 8.9977 -42.0668 -107.3147 31.9110 24.0261 106.4310 0.0000 -43.2980 0.8654 9.5874 -5.1819 32.8623 0.0000 -24.3270 -3.8054 11.5292 2.7062 -7.1198 0.0000 0.0000 -16.0356 30.4710 1.7881 26.3760 0.0000 -0.0000 -4.5433 -9.5918 -0.9850 -3.0325 0.0000 0.0000 -14.7741 -27.7232 5.9712 24.2676 0.0000 -0.0000
 19.2298 35.6209 -21.0014 168.3765 -0.9575 178.2850 -24.8056 -1.9808 -4.1755 22.9562 0.6998 2.2327 -61.1143 -37.4531 24.5083 -42.4999 -45.5201 -19.5987 -65.8492 0.0000 -66.5081 -1.5371 -3.1317 -26.1586 33.1476 -0.0000 26.2537 -33.2288 9.1187 -42.0799 -107.2614 32.0078 24.1671 107.2237 0.0000 -43.4159 0.8781 9.5422 -5.2823 32.8623 0.0000 -24.3270 -3.8026 11.4932 2.7443 -7.0877 -0.0000 -0.0000 -16.0548 30.4747 1.7916 26.4126 -0.0000 -0.0000 -4.5080 -9.5750 -0.9549 -3.0071 0.0000 0.0000 -14.7847 -27.7958 6.0015 24.0658 0.0000 -0.0000
